<svg width="123" height="123" viewBox="0 0 123 123" xmlns="http://www.w3.org/2000/svg"><title>Illustrations/choose</title><g fill="none"><circle fill="#AD4B81" cx="61.5" cy="61.5" r="61.5"/><path d="M93.98 22.102H30.077c-4.228 0-7.687 3.459-7.687 7.687V84.37c0 4.228 3.46 7.688 7.687 7.688H41.61v13.933l13.933-13.933H93.98c4.228 0 7.687-3.46 7.687-7.688V29.79c0-4.23-3.46-7.688-7.687-7.688z" fill="#FFF"/><path d="M55.167 55.218a1.73 1.73 0 0 1-1.21-.506l-6.132-5.727c-.69-.674-.69-1.685 0-2.358a1.805 1.805 0 0 1 2.505 0l4.837 4.548 17.62-16.593a1.805 1.805 0 0 1 2.505 0c.69.674.69 1.685 0 2.359l-18.83 17.855a2.367 2.367 0 0 1-1.295.422z" fill="#2FDF95"/><path d="M42.281 87.541v4.517H30.077c-4.228 0-7.687-3.46-7.687-7.688v-4.516c0 4.228 3.46 7.687 7.687 7.687h12.204zm51.699 0c4.228 0 7.687-3.459 7.687-7.687v4.516c0 4.228-3.46 7.688-7.687 7.688H55.542L41.61 105.99v-4.516L55.543 87.54H93.98z" fill="#CFCCCE"/><path d="M41.32 106.952c-.096 0-.288 0-.384-.096-.384-.192-.577-.48-.577-.865v-12.78H30.077c-4.708 0-8.936-4.132-8.936-8.84V29.788c0-4.709 4.036-8.648 8.936-8.648H93.98c4.804 0 8.84 3.94 8.84 8.648V84.37c0 4.709-4.132 8.84-8.84 8.84H55.927l-13.934 13.454c-.192.192-.384.288-.673.288zm-11.243-83.89c-3.747 0-7.015 3.075-7.015 6.727V84.37c0 3.652 3.268 6.92 7.015 6.92H41.32c.577 0 .961.383.961.96v11.435L54.87 91.577c.192-.192.384-.288.672-.288H93.98c3.747 0 6.918-3.267 6.918-6.919V29.79c0-3.652-3.17-6.727-6.918-6.727H30.077z" fill="#1C1B1B"/><path d="M92.25 66.305h-8.648c-.577 0-.961-.385-.961-.961 0-.577.48-.961.96-.961h8.649c.577 0 .96.384.96.96 0 .577-.48.962-.96.962zm-13.453 0h-21.14c-.577 0-.962-.385-.962-.961 0-.577.48-.961.961-.961h21.14c.577 0 .962.384.962.96 0 .577-.48.962-.961.962zm-26.906 0H30.75c-.577 0-.96-.385-.96-.961 0-.577.383-.961.96-.961h21.14c.577 0 .962.384.962.96 0 .577-.385.962-.961.962zM92.25 73.03H73.031c-.576 0-.96-.384-.96-.96 0-.577.48-.962.96-.962H92.25c.577 0 .96.385.96.961 0 .577-.48.961-.96.961zm-25.945 0h-19.22c-.576 0-.96-.384-.96-.96 0-.577.48-.962.96-.962h19.22c.576 0 .96.385.96.961 0 .577-.48.961-.96.961zm-24.985 0H30.654c-.577 0-.961-.384-.961-.96 0-.577.48-.962.96-.962H41.32c.577 0 .961.385.961.961 0 .577-.48.961-.96.961zm50.93 6.727H58.617c-.576 0-.96-.385-.96-.961 0-.577.48-.961.96-.961H92.25c.577 0 .96.384.96.96 0 .577-.48.962-.96.962zm-39.398 0H30.654c-.577 0-.961-.385-.961-.961 0-.577.48-.961.96-.961h22.199c.576 0 .96.384.96.96 0 .577-.48.962-.96.962zm39.398 5.765H78.797c-.577 0-.961-.384-.961-.96 0-.577.384-.961.96-.961H92.25c.577 0 .96.384.96.96 0 .577-.383.961-.96.961z" fill="#CFCCCE"/><path d="M97.055 72.263c-.577 0-.961-.385-.961-.961V57.464c0-.576.384-.96.96-.96.577 0 .962.384.962.96v13.934c0 .48-.385.865-.961.865z" fill="#FFF"/></g></svg>