<svg width="128" height="128" viewBox="0 0 128 128" xmlns="http://www.w3.org/2000/svg"><title>Illustrations/letter</title><g fill="none"><circle fill="#AD4B81" cx="64" cy="64" r="64"/><path d="M20.5 41l38.1-29.1c3.3-2.5 8.7-2.4 12 .1l37.9 29h-88z" fill="#FFF"/><path fill="#EAEAEA" d="M32.8 31h63.6L80.7 19H48.6z"/><path d="M108 96.4c0 4.2-2.8 7.6-7 7.6H28.1c-4.2 0-8.1-3.4-8.1-7.6V41h88v55.4z" fill="#FFF"/><path d="M107.6 42h-87c-.4 0-.8-.3-.9-.7-.1-.4 0-.9.3-1.1l38-29.1C59.7 9.7 62 9 64.5 9s4.9.8 6.8 2.2l36.8 29c.3.2.5.5.5.9 0 .5-.5.9-1 .9zm-84.1-2h81.2L70 12.7c-1.4-1.1-3.5-1.7-5.5-1.7s-3.9.6-5.3 1.6L23.5 40z" fill="#1C1B1B"/><path d="M102 73c0 4.4-3.6 8-8 8H35c-4.4 0-8-3.6-8-8V32c0-4.4 3.6-8 8-8h59c4.4 0 8 3.6 8 8v41z" fill="#FFF"/><path fill="#EAEAEA" d="M64.2 65.3l-37-27.6v42.7h74.7V37.2z"/><path d="M37.1 33.1h26.7" fill="#FFF"/><path d="M63.8 34H37c-.6 0-1-.4-1-1s.4-1 1-1h26.8c.6 0 1 .4 1 1s-.4 1-1 1zM85 40H56c-.6 0-1-.4-1-1s.4-1 1-1h29c.6 0 1 .4 1 1s-.4 1-1 1zm-47.9 0h12.1-12.1zM92 47H81.1c-.6 0-1-.4-1-1s.5-1 1-1H92c.6 0 1 .4 1 1s-.5 1-1 1zm-17 0H63c-.6 0-1-.4-1-1s.5-1 1-1h12c.6 0 1 .4 1 1s-.5 1-1 1zm-18 0H37c-.6 0-1-.4-1-1s.5-1 1-1h20c.6 0 1 .4 1 1s-.5 1-1 1zm26.9 6H73.1c-.6 0-1.1-.4-1.1-1s.5-1 1.1-1H84c.6 0 1.1.4 1.1 1s-.6 1-1.2 1zM64 53H37c-.5 0-1-.4-1-1s.4-1 1-1h27c.5 0 1 .4 1 1s-.4 1-1 1zm-11 7H37.1c-.6 0-1-.4-1-1s.5-1 1-1H53c.6 0 1 .4 1 1s-.5 1-1 1zm21.9 0H59c-.6 0-1-.4-1-1s.5-1 1-1h15.9c.6 0 1 .4 1 1s-.4 1-1 1zM92 34H73c-.6 0-1-.4-1-1s.5-1 1-1h19c.6 0 1 .4 1 1s-.5 1-1 1zm-.5 31.9H37.1c-.6 0-1-.4-1-1s.4-1 1-1h54.4c.6 0 1 .4 1 1s-.4 1-1 1z" fill="#1C1B1B" opacity=".5"/><path d="M94 82H35c-5 0-9-4-9-9V32c0-5 4-9 9-9h59c5 0 9 4 9 9v41c0 5-4 9-9 9zM35 25c-3.9 0-7 3.1-7 7v41c0 3.9 3.1 7 7 7h59c3.9 0 7-3.1 7-7V32c0-3.9-3.1-7-7-7H35z" fill="#1C1B1B"/><path d="M108.5 41.3L69.3 70.4s29.3 25 32 27.4c2.8 2.4 3.5 5 3.5 5s3.8-1.2 3.8-8.8c0-7.5-.1-52.7-.1-52.7zm-88.4 0l39.2 29.1s-29.3 25-32 27.4c-2.8 2.4-3.5 5-3.5 5S20 101.6 20 94c.1-7.5.1-52.7.1-52.7z" fill="#FFF"/><path d="M107.8 99.2l-.7-.7L72 68.4l-2.8 2s29.3 25 32 27.4c2.8 2.4 3.5 5 3.5 5s2-.6 3.1-3.6zm-80.5-1.4c2.8-2.4 32-27.4 32-27.4l-2.4-1.8-34.7 29.9c-.5.4-.8.8-1.1 1.1 1.1 2.6 2.8 3.2 2.8 3.2s.6-2.6 3.4-5z" fill="#EAEAEA"/><path d="M64.6 75.1c-.2 0-.4-.1-.6-.2L20.1 41.4c-.4-.3-.5-1-.2-1.4.3-.4 1-.5 1.4-.2l43.3 33.1 42.3-33.1c.4-.3 1.1-.3 1.4.2.3.4.3 1.1-.2 1.4L65.2 74.9c-.1.2-.4.2-.6.2z" fill="#1C1B1B"/><path d="M28.7 104c-4.4 0-5.3-2.3-1.9-5.2l31.8-27.4c3.3-2.9 8.8-2.9 12.1 0l31.8 27.4c3.3 2.9 2.5 5.2-1.9 5.2H28.7z" fill="#FFF"/><path d="M101 92H28.1c-4.2 0-7.6-3.8-7.6-8v12.3c0 4.2 3.4 7.6 7.6 7.6H101c4.2 0 7.6-3.4 7.6-7.6V84c0 4.2-3.4 8-7.6 8z" fill="#EAEAEA"/><path d="M101 105H28.1c-4.9 0-9.1-4-9.1-8.6V41c0-.6.4-1 1-1s1 .4 1 1v55.4c0 3.5 3.3 6.6 7.1 6.6H101c3.5 0 6-2.8 6-6.6V41c0-.6.4-1 1-1s1 .4 1 1v55.4c0 4.9-3.4 8.6-8 8.6z" fill="#1C1B1B"/><path d="M101 105H28c-3.5 0-4.6-1.4-4.9-2.2-.3-.8-.4-2.5 2.2-4.8l32.3-27.6c1.8-1.6 4.2-2.4 6.8-2.4 2.6 0 5 .9 6.8 2.4L103.6 98c2.7 2.3 2.6 4 2.2 4.8-.3.8-1.3 2.2-4.8 2.2zM64.5 70c-2.1 0-4 .7-5.5 1.9L26.7 99.5c-1.4 1.2-1.8 2.2-1.7 2.6.2.4 1.2.9 3 .9h73c1.8 0 2.8-.4 3-.9.2-.4-.3-1.4-1.7-2.6L70 71.9c-1.5-1.2-3.4-1.9-5.5-1.9z" fill="#1C1B1B"/><path d="M103.1 66.5v18.6m0-30.9v7.5" fill="#FFF"/></g></svg>