<svg width="73" height="64" viewBox="0 0 73 64" xmlns="http://www.w3.org/2000/svg"><title>Illustrations/mail</title><g fill="none" fill-rule="evenodd"><g fill-rule="nonzero"><path d="M7.038 21.333l25.536-19.4C34.786.267 38.405.333 40.617 2L66.02 21.333H7.038z" fill="#FFF"/><path fill="#CFCCCE" d="M15.282 14.667H57.91l-10.523-8H25.872z"/><path d="M65.685 58.267c0 2.8-1.877 5.066-4.692 5.066H12.132c-2.816 0-5.43-2.266-5.43-5.066V21.333h58.983v36.934z" fill="#FFF"/><path d="M65.416 22H7.105a.643.643 0 0 1-.604-.467c-.067-.266 0-.6.202-.733L32.172 1.4C33.312.467 34.853 0 36.529 0c1.675 0 3.284.533 4.557 1.467L65.752 20.8a.7.7 0 0 1 .335.6c0 .333-.335.6-.67.6zM9.048 20.667h54.425l-23.258-18.2c-.938-.734-2.346-1.134-3.686-1.134-1.34 0-2.614.4-3.553 1.067L9.048 20.667z" fill="#1C1B1B"/><path d="M61.663 42.667C61.663 45.6 59.25 48 56.301 48H16.756c-2.949 0-5.362-2.4-5.362-5.333V15.333c0-2.933 2.413-5.333 5.362-5.333h39.545c2.95 0 5.362 2.4 5.362 5.333v27.334z" fill="#FFF"/><path fill="#EAEAEA" d="M36.328 37.533l-24.8-18.4V47.6h50.068V18.8z"/><path d="M42.092 16.067h12.533m-36.461 0h17.895" fill="#FFF"/><path d="M36.06 16.667H18.096c-.402 0-.67-.267-.67-.667s.268-.667.67-.667h17.962c.403 0 .67.267.67.667s-.267.667-.67.667zm14.209 4H30.832c-.403 0-.67-.267-.67-.667s.267-.667.67-.667h19.437c.402 0 .67.267.67.667s-.268.667-.67.667zm-32.105 0h8.11-8.11zm36.797 4.666h-7.306c-.402 0-.67-.266-.67-.666s.335-.667.67-.667h7.306c.402 0 .67.267.67.667a.67.67 0 0 1-.67.666zm-11.395 0h-8.043c-.402 0-.67-.266-.67-.666s.335-.667.67-.667h8.043c.402 0 .67.267.67.667a.67.67 0 0 1-.67.666zm-12.064 0H18.097c-.402 0-.67-.266-.67-.666s.335-.667.67-.667h13.405c.402 0 .67.267.67.667a.67.67 0 0 1-.67.666zm18.03 4h-7.24c-.401 0-.736-.266-.736-.666s.335-.667.737-.667h7.306c.402 0 .737.267.737.667s-.402.666-.804.666zm-13.338 0H18.097a.67.67 0 0 1-.67-.666c0-.4.268-.667.67-.667h18.097a.67.67 0 0 1 .67.667c0 .4-.268.666-.67.666zM28.82 34H18.164c-.402 0-.67-.267-.67-.667s.335-.666.67-.666H28.82c.402 0 .67.266.67.666a.67.67 0 0 1-.67.667zm14.678 0H32.842c-.402 0-.67-.267-.67-.667s.335-.666.67-.666H43.5c.402 0 .67.266.67.666s-.268.667-.67.667zm11.126 3.933h-36.46c-.402 0-.67-.266-.67-.666s.268-.667.67-.667h36.461c.403 0 .67.267.67.667s-.267.666-.67.666zm.336-21.266H42.226c-.402 0-.67-.267-.67-.667s.335-.667.67-.667H54.96c.402 0 .67.267.67.667a.67.67 0 0 1-.67.667z" fill="#CFCCCE"/><path d="M56.301 48.667H16.756c-3.351 0-6.032-2.667-6.032-6V15.333c0-3.333 2.681-6 6.032-6h39.545c3.351 0 6.032 2.667 6.032 6v27.334c0 3.333-2.68 6-6.032 6zm-39.545-38c-2.614 0-4.691 2.066-4.691 4.666v27.334c0 2.6 2.077 4.666 4.691 4.666h39.545c2.614 0 4.692-2.066 4.692-4.666V15.333c0-2.6-2.078-4.666-4.692-4.666H16.756z" fill="#1C1B1B"/><path d="M66.02 21.533l-26.274 19.4S59.384 57.6 61.194 59.2c1.877 1.6 2.346 3.333 2.346 3.333s2.547-.8 2.547-5.866c0-5-.067-35.134-.067-35.134zm-59.25 0l26.273 19.4S13.405 57.6 11.595 59.2C9.72 60.8 9.25 62.533 9.25 62.533s-2.546-.8-2.546-5.866c.067-5 .067-35.134.067-35.134z" fill="#FFF"/><path d="M65.55 60.133l-.469-.466L41.556 39.6l-1.877 1.333S59.317 57.6 61.127 59.2c1.877 1.6 2.346 3.333 2.346 3.333s1.34-.4 2.078-2.4zM11.595 59.2c1.877-1.6 21.448-18.267 21.448-18.267l-1.608-1.2L8.177 59.667c-.335.266-.536.533-.737.733.737 1.733 1.876 2.133 1.876 2.133s.403-1.733 2.28-3.333z" fill="#EAEAEA"/><path d="M36.596 44.067c-.134 0-.268-.067-.402-.134L6.77 21.6c-.269-.2-.336-.667-.135-.933.202-.267.67-.334.939-.134L36.596 42.6l28.351-22.067c.268-.2.738-.2.939.134.2.266.2.733-.134.933L36.998 43.933c-.067.134-.268.134-.402.134z" fill="#1C1B1B"/><path d="M12.534 63.333c-2.95 0-3.553-1.533-1.274-3.466L32.574 41.6c2.212-1.933 5.898-1.933 8.11 0l21.314 18.267c2.212 1.933 1.676 3.466-1.273 3.466H12.534z" fill="#FFF"/><path d="M60.993 55.333H12.132c-2.816 0-5.094-2.533-5.094-5.333v8.2c0 2.8 2.278 5.067 5.094 5.067h48.86c2.816 0 5.095-2.267 5.095-5.067V50c0 2.8-2.28 5.333-5.094 5.333z" fill="#CFCCCE" opacity=".4"/><path d="M60.993 64H12.132c-3.285 0-6.1-2.667-6.1-5.733V21.333c0-.4.268-.666.67-.666.403 0 .67.266.67.666v36.934c0 2.333 2.213 4.4 4.76 4.4h48.86c2.347 0 4.022-1.867 4.022-4.4V21.333c0-.4.268-.666.67-.666.403 0 .67.266.67.666v36.934c0 3.266-2.278 5.733-5.361 5.733z" fill="#1C1B1B"/><path d="M60.993 64H12.065c-2.346 0-3.084-.933-3.285-1.467-.2-.533-.268-1.666 1.475-3.2l21.649-18.4c1.206-1.066 2.815-1.6 4.558-1.6 1.742 0 3.35.6 4.557 1.6l21.716 18.4c1.81 1.534 1.743 2.667 1.475 3.2-.201.534-.871 1.467-3.217 1.467zM36.529 40.667a5.872 5.872 0 0 0-3.687 1.266l-21.649 18.4c-.938.8-1.206 1.467-1.14 1.734.135.266.805.6 2.012.6h48.928c1.206 0 1.877-.267 2.01-.6.135-.267-.2-.934-1.139-1.734l-21.649-18.4a5.872 5.872 0 0 0-3.686-1.266z" fill="#1C1B1B"/><path d="M62.4 38.333v12.4m0-20.6v5" fill="#FFF"/></g><path fill="#1C1B1B" d="M0 63h72.387v1H0z"/></g></svg>