<svg width="136" height="136" viewBox="0 0 136 136" xmlns="http://www.w3.org/2000/svg" xmlns:xlink="http://www.w3.org/1999/xlink"><title>Illustrations/offers</title><defs><circle id="a" cx="68" cy="68" r="68"/></defs><g fill="none" fill-rule="evenodd"><mask id="b" fill="#fff"><use xlink:href="#a"/></mask><use fill="#AD4B81" fill-rule="nonzero" xlink:href="#a"/><path d="M110.5 103.381c-1.487-1.275-2.975-2.55-4.569-3.825-.743-.743-2.231 1.382-2.975 1.913V8.819C92.65 2.55 80.644-1.063 67.787-1.063c-11.368 0-22.1 2.87-31.45 7.757v95.2c0 6.268 3.082 9.668 7.757 9.668h65.768c7.226 0 7.12-7.118 7.12-12.325-1.276 1.063-5.1 5.313-6.482 4.144z" fill="#FFF" fill-rule="nonzero" mask="url(#b)"/><path d="M43.35 112.519a1.065 1.065 0 0 1-1.063-1.063c0-.637.532-1.062 1.063-1.062 3.294 0 5.95-2.763 5.95-6.163v-5.418c0-.425.213-.85.638-.957.424-.212.85-.106 1.168.107l4.888 4.25 4.887-4.25a1.117 1.117 0 0 1 1.382 0l4.887 4.25 4.887-4.25a1.117 1.117 0 0 1 1.382 0l4.887 4.25 4.888-4.25a1.117 1.117 0 0 1 1.381 0l4.888 4.25 4.887-4.25a1.117 1.117 0 0 1 1.381 0l4.888 4.25 4.887-4.25c.425-.425 1.169-.32 1.488.106.425.425.319 1.168-.106 1.487l-5.632 4.782a1.117 1.117 0 0 1-1.381 0l-4.888-4.25-4.887 4.25a1.117 1.117 0 0 1-1.381 0l-4.888-4.25-4.887 4.25a1.117 1.117 0 0 1-1.382 0l-4.887-4.25-4.888 4.25a1.117 1.117 0 0 1-1.38 0l-4.888-4.25-4.888 4.25a1.117 1.117 0 0 1-1.381 0l-3.825-3.294v3.081c.106 4.675-3.612 8.394-8.075 8.394z" fill="#1C1B1B" fill-rule="nonzero" mask="url(#b)"/><path d="M94.669 46.75H85c-1.169 0-2.019-.956-2.019-2.125S83.938 42.5 85 42.5h9.669c1.169 0 2.019.956 2.019 2.125s-.957 2.125-2.02 2.125zM76.5 45.687H45.687c-.637 0-1.062-.424-1.062-1.062 0-.638.425-1.063 1.063-1.063H76.5c.638 0 1.063.425 1.063 1.063 0 .638-.425 1.063-1.063 1.063zm18.169 9.563H85c-1.169 0-2.019-.956-2.019-2.125S83.938 51 85 51h9.669c1.169 0 2.019.956 2.019 2.125s-.957 2.125-2.02 2.125zm-27.731-1.063h-21.25c-.638 0-1.063-.424-1.063-1.062 0-.638.425-1.063 1.063-1.063h21.25c.637 0 1.062.425 1.062 1.063 0 .638-.425 1.063-1.063 1.063zm27.73-15.937H85c-1.169 0-2.019-.956-2.019-2.125S83.938 34 85 34h9.669c1.169 0 2.019.956 2.019 2.125s-.957 2.125-2.02 2.125zm-27.73-1.063h-21.25c-.638 0-1.063-.424-1.063-1.062 0-.638.425-1.063 1.063-1.063h21.25c.637 0 1.062.425 1.062 1.063 0 .638-.425 1.063-1.063 1.063zm27.73 26.563H85c-1.169 0-2.019-.956-2.019-2.125S83.938 59.5 85 59.5h9.669c1.169 0 2.019.956 2.019 2.125s-.957 2.125-2.02 2.125zM76.5 62.687H62.794a1.065 1.065 0 0 1-1.063-1.062c0-.638.425-1.063 1.063-1.063H76.5c.531 0 1.063.425 1.063 1.063 0 .638-.425 1.063-1.063 1.063zm-18.063 0h-12.75a1.065 1.065 0 0 1-1.062-1.062c0-.638.425-1.063 1.063-1.063h12.75c.53 0 1.062.425 1.062 1.063 0 .638-.425 1.063-1.063 1.063zM94.67 72.25H85c-1.169 0-2.019-.956-2.019-2.125S83.938 68 85 68h9.669c1.169 0 2.019.956 2.019 2.125s-.957 2.125-2.02 2.125zM76.5 71.187h-5.313c-.637 0-1.062-.424-1.062-1.062 0-.638.425-1.063 1.063-1.063H76.5c.638 0 1.063.425 1.063 1.063 0 .638-.425 1.063-1.063 1.063zm-9.563 0h-21.25c-.637 0-1.062-.424-1.062-1.062 0-.638.425-1.063 1.063-1.063h21.25c.637 0 1.062.425 1.062 1.063 0 .638-.425 1.063-1.063 1.063zM46.75 23.376a1.065 1.065 0 0 1-1.063-1.063V10.626c0-.637.425-1.063 1.063-1.063.638 0 1.063.532 1.063 1.063v11.688c0 .53-.425 1.062-1.063 1.062zm8.5 0a1.065 1.065 0 0 1-1.063-1.063V10.626c0-.637.425-1.063 1.063-1.063.638 0 1.063.532 1.063 1.063v11.688c0 .53-.425 1.062-1.063 1.062zm4.25 0a1.065 1.065 0 0 1-1.063-1.063V10.626c0-.637.425-1.063 1.063-1.063.638 0 1.063.532 1.063 1.063v11.688c0 .53-.425 1.062-1.063 1.062zm3.188 0a1.065 1.065 0 0 1-1.063-1.063V10.626c0-.637.425-1.063 1.063-1.063.637 0 1.062.532 1.062 1.063v11.688c0 .53-.425 1.062-1.063 1.062zm-11.688 0a2.131 2.131 0 0 1-2.125-2.125v-9.563c0-1.168.956-2.124 2.125-2.124s2.125.956 2.125 2.124v9.563A2.131 2.131 0 0 1 51 23.375zm-4.462 68.85a.812.812 0 0 1-.532-.212c-1.062-1.063.956-5.207 2.338-7.013 1.7-2.338 3.081-2.231 3.825-1.912.212.106.319.425.212.743-.106.213-.425.319-.743.213-.425-.213-.957 0-1.594.531-1.913 1.7-3.4 5.525-3.294 6.587l.106-.106c.744-.531 1.275-1.168 1.7-1.806 0-1.275.744-2.869 1.063-3.294.212-.319.425-.425.743-.425.213 0 .425.213.532.531.106.532-.213 2.02-1.169 3.507 0 .212 0 .319.106.425 0 0 .425.106 1.169-.531.638-.425 1.169-.85 1.7-1.17 1.912-1.274 3.081-2.124 3.931-1.806.425.107.744.532.85 1.063.319.956 2.019 2.231 3.188 2.338.637 0 .744-.213.85-.425.106-.213.425-.425.744-.213.318.106.425.425.318.744-.319.743-1.062 1.168-1.912 1.062-1.594-.106-3.613-1.593-4.144-3.081-.106-.212-.106-.319-.212-.319-.425-.106-1.7.744-2.976 1.7-.53.425-1.168.744-1.806 1.169-1.169.744-2.018.85-2.55.319l-.106-.106c-.425.424-.85.956-1.381 1.38-.319 0-.638.107-.956.107z" fill="#CFCCCE" fill-rule="nonzero" mask="url(#b)"/><path d="M117.938 99.875v-1.063c0-.424 0-1.062-1.063-1.062-.638 0-1.275 1.275-1.806 1.7-.957.85-3.082 2.975-3.931 2.975l-4.888-4.675s-1.594 1.7-2.125 2.125V9.35c-.744-.425-1.381-.85-2.125-1.275v93.394c0 .425.106.744.531.956.319.213 2.656-2.55 2.656-2.55l4.675 4.25c.32.319.744.425 1.276.425 1.38 0 2.974-1.275 4.78-2.975 0 1.912-.212 3.825-.85 5.419-.85 2.337-2.55 3.4-5.206 3.4H44.094c-4.25 0-6.907-3.188-6.907-8.607V6.27l-1.912.956v94.563c0 6.587 3.4 10.73 8.819 10.73h65.768c3.613 0 6.057-1.593 7.226-4.78.956-2.444.85-5.1.85-7.863z" fill="#1C1B1B" fill-rule="nonzero" mask="url(#b)"/></g></svg>