<svg width="75" height="64" viewBox="0 0 75 64" xmlns="http://www.w3.org/2000/svg"><title>Illustrations/phone</title><g fill="none" fill-rule="evenodd"><g transform="translate(17.661)" fill-rule="nonzero"><path d="M35.82 60c0 1.886-1.586 3.429-3.524 3.429H4.698c-1.938 0-3.524-1.543-3.524-3.429V4C1.174 2.114 2.76.571 4.698.571h27.598c1.938 0 3.523 1.543 3.523 3.429v56z" fill="#CFCCCE"/><path d="M2.936 60V4c0-1.886 1.82-3.429 3.758-3.429H4.932C2.995.571 1.41 2.114 1.41 4v56c0 1.886 1.586 3.429 3.523 3.429h1.762c-1.938 0-3.758-1.543-3.758-3.429z" fill="#CFCCCE" style="mix-blend-mode:multiply"/><path d="M32.296 64H4.698c-2.29 0-4.11-1.771-4.11-4V4c0-2.229 1.82-4 4.11-4h27.598c2.29 0 4.11 1.771 4.11 4v56c0 2.229-1.82 4-4.11 4zM4.698 1.143C3.053 1.143 1.762 2.4 1.762 4v56c0 1.6 1.291 2.857 2.936 2.857h27.598c1.644 0 2.936-1.257 2.936-2.857V4c0-1.6-1.292-2.857-2.936-2.857H4.698z" fill="#1C1B1B"/><path d="M39.93 60c0 1.886-1.586 3.429-3.524 3.429H8.808c-1.938 0-3.523-1.543-3.523-3.429V4C5.285 2.114 6.87.571 8.808.571h27.598C38.344.571 39.93 2.114 39.93 4v56z" fill="#FFF"/><path d="M35.82 52c0 1.257-1.058 2.286-2.35 2.286H11.744c-1.292 0-2.349-1.029-2.349-2.286V9.714c0-1.257 1.057-2.285 2.349-2.285H33.47c1.292 0 2.35 1.028 2.35 2.285V52z" fill="#CFCCCE"/><ellipse fill="#EAEAEA" cx="22.901" cy="58.286" rx="2.349" ry="2.286"/><path d="M2.936 15.429c0 .628-.528 1.142-1.174 1.142-.646 0-1.175-.514-1.175-1.142V9.714c0-.628.529-1.143 1.175-1.143s1.174.515 1.174 1.143v5.715zm0 10.857c0 .628-.528 1.143-1.174 1.143-.646 0-1.175-.515-1.175-1.143V20.57c0-.628.529-1.142 1.175-1.142s1.174.514 1.174 1.142v5.715z" fill="#EAEAEA"/><path d="M25.837 4.571h-6.46c-.352 0-.587-.228-.587-.571 0-.343.235-.571.588-.571h6.459c.352 0 .587.228.587.571 0 .343-.235.571-.587.571zM1.762 17.143C.763 17.143 0 16.4 0 15.429V9.714C0 8.743.763 8 1.762 8c.998 0 1.761.743 1.761 1.714v5.715c0 .971-.763 1.714-1.761 1.714zm0-8c-.353 0-.588.228-.588.571v5.715c0 .342.235.571.588.571.352 0 .587-.229.587-.571V9.714c0-.343-.235-.571-.587-.571zm0 18.857C.763 28 0 27.257 0 26.286V20.57c0-.971.763-1.714 1.762-1.714.998 0 1.761.743 1.761 1.714v5.715c0 .971-.763 1.714-1.761 1.714zm0-8c-.353 0-.588.229-.588.571v5.715c0 .343.235.571.588.571.352 0 .587-.228.587-.571V20.57c0-.342-.235-.571-.587-.571z" fill="#1C1B1B"/><path d="M36.406 64H8.808c-2.29 0-4.11-1.771-4.11-4V4c0-2.229 1.82-4 4.11-4h27.598c2.29 0 4.11 1.771 4.11 4v56c0 2.229-1.82 4-4.11 4zM8.808 1.143C7.164 1.143 5.872 2.4 5.872 4v56c0 1.6 1.292 2.857 2.936 2.857h27.598c1.644 0 2.936-1.257 2.936-2.857V4c0-1.6-1.292-2.857-2.936-2.857H8.808z" fill="#1C1B1B"/><path d="M33.47 48.571H11.744c-1.292 0-2.349-1.028-2.349-2.285V52c0 1.257 1.057 2.286 2.349 2.286H33.47c1.292 0 2.35-1.029 2.35-2.286v-5.714c0 1.257-1.058 2.285-2.35 2.285z" fill="#CFCCCE" style="mix-blend-mode:multiply"/><path d="M22.9 57.257c1.116 0 1.997.8 2.29 1.943.06-.171.06-.4.06-.629 0-1.428-1.057-2.571-2.35-2.571-1.291 0-2.348 1.143-2.348 2.571 0 .229.059.4.059.629.293-1.143 1.174-1.943 2.29-1.943z" fill="#D4D6D6"/></g><path fill="#1C1B1B" d="M0 63h74.8v1H0z"/></g></svg>