<svg width="123" height="123" viewBox="0 0 123 123" xmlns="http://www.w3.org/2000/svg"><title>Illustrations/request</title><g fill="none"><circle fill="#AD4B81" cx="61.5" cy="61.5" r="61.5"/><path d="M61.404 0c-14.126 0-27.002 4.805-37.38 12.78l-.193 72.743c0 4.229 3.46 7.688 7.688 7.688h61.788c4.228 0 7.688-3.46 7.688-7.688l-.097-71.205C90.232 5.381 76.587 0 61.596 0h-.192z" fill="#FFF"/><path d="M47.355 72.07c-5.976 0-10.84-4.742-10.84-10.57s4.864-10.57 10.84-10.57c5.977 0 10.84 4.742 10.84 10.57s-4.863 10.57-10.84 10.57zm0-19.998c-5.332 0-9.667 4.229-9.667 9.428 0 5.2 4.335 9.428 9.667 9.428 5.333 0 9.668-4.229 9.668-9.428 0-5.2-4.336-9.428-9.668-9.428z" fill="#CFCCCE"/><path d="M46.535 66.357c-.293 0-.586-.115-.82-.343l-4.16-3.885c-.47-.458-.47-1.143 0-1.6a1.224 1.224 0 0 1 1.699 0l3.281 3.085 11.953-11.256a1.224 1.224 0 0 1 1.7 0c.468.457.468 1.143 0 1.6L47.413 66.07a1.606 1.606 0 0 1-.879.286z" fill="#2FDF95"/><path d="M78.105 72.07c-5.976 0-10.84-4.742-10.84-10.57s4.864-10.57 10.84-10.57c5.977 0 10.84 4.742 10.84 10.57s-4.863 10.57-10.84 10.57zm0-19.998c-5.332 0-9.668 4.229-9.668 9.428 0 5.2 4.336 9.428 9.668 9.428 5.332 0 9.668-4.229 9.668-9.428 0-5.2-4.335-9.428-9.668-9.428zm12.223-35.736H71.11c-.576 0-.96-.384-.96-.961s.48-.96.96-.96h19.22c.576 0 .96.383.96.96s-.48.96-.96.96zm-26.906 0H35.555c-.577 0-.961-.384-.961-.961s.384-.96.96-.96h27.868c.576 0 .96.383.96.96s-.384.96-.96.96zm16.336-6.727H35.555c-.577 0-.961-.384-.961-.96 0-.577.48-.961.96-.961h44.204c.576 0 .96.384.96.96 0 .577-.48.961-.96.961zm10.57 13.454H51.891c-.577 0-.961-.385-.961-.961 0-.577.48-.961.96-.961h38.438c.577 0 .961.384.961.96 0 .577-.48.962-.96.962zm-47.086 0h-7.687c-.577 0-.961-.385-.961-.961 0-.577.384-.961.96-.961h7.688c.577 0 .961.384.961.96 0 .577-.384.962-.96.962zm46.99 6.726h-6.63c-.577 0-1.057-.384-1.057-.96 0-.577.48-.962 1.057-.962h6.63c.577 0 1.057.385 1.057.961 0 .577-.48.961-1.057.961zm-11.435 0H64.383c-.577 0-.961-.384-.961-.96 0-.577.48-.962.96-.962h14.415c.576 0 .96.385.96.961 0 .577-.48.961-.96.961zm-21.14 0H35.554c-.577 0-.961-.384-.961-.96 0-.577.384-.962.96-.962h22.102c.577 0 .961.385.961.961 0 .577-.384.961-.96.961zm32.671 6.727h-30.75c-.576 0-.96-.385-.96-.961 0-.577.384-.961.96-.961h30.75c.577 0 .961.384.961.96 0 .577-.384.962-.96.962zm-39.398 0H35.555c-.577 0-.961-.385-.961-.961 0-.577.384-.961.96-.961H50.93c.576 0 .96.384.96.96 0 .577-.384.962-.96.962zm39.398 6.726H76.875c-.577 0-.96-.384-.96-.96 0-.577.48-.962.96-.962h13.453c.577 0 .961.385.961.961 0 .577-.48.961-.96.961zm-23.062 0H35.555c-.577 0-.961-.384-.961-.96 0-.577.384-.962.96-.962h31.712c.576 0 .96.385.96.961 0 .577-.384.961-.96.961z" fill="#CFCCCE"/><path d="M99.938 13.55v71.973a6.685 6.685 0 0 1-6.727 6.727h-61.5a6.685 6.685 0 0 1-6.727-6.727V12.012c-.672.48-1.249.96-1.922 1.441v72.07a8.612 8.612 0 0 0 8.649 8.649h61.5a8.612 8.612 0 0 0 8.648-8.649V15.087c-.672-.48-1.249-1.057-1.921-1.538z" fill="#1C1B1B"/></g></svg>