<svg width="15" height="13" viewBox="0 0 15 13" xmlns="http://www.w3.org/2000/svg"><title>valid-warning</title><g fill="none" fill-rule="evenodd"><path d="M8.328.67l6.348 9.939a1 1 0 0 1-.843 1.538H1.137a1 1 0 0 1-.843-1.538L6.643.669a1 1 0 0 1 1.685 0z" fill="#FFCE52"/><path d="M6.765 5.652L6.711 4.32H8.26l-.054 1.332-.216 2.502H6.981l-.216-2.502zm-.18 3.87a.94.94 0 0 1 .252-.666.847.847 0 0 1 .648-.27c.264 0 .48.09.648.27a.94.94 0 0 1 .252.666.94.94 0 0 1-.252.666.847.847 0 0 1-.648.27.847.847 0 0 1-.648-.27.94.94 0 0 1-.252-.666z" fill="#1C1B1B"/></g></svg>