<svg width="24" height="24" viewBox="0 0 24 24" xmlns="http://www.w3.org/2000/svg"><title>Icons/minus</title><path d="M20.49 3.52c4.68 4.682 4.68 12.298 0 16.98-4.681 4.68-12.298 4.68-16.98 0-4.68-4.682-4.68-12.299 0-16.98 4.682-4.68 12.298-4.68 16.98 0zM4.222 19.788c4.288 4.289 11.266 4.289 15.554 0 4.29-4.289 4.29-11.266 0-15.555-4.288-4.288-11.265-4.288-15.554 0-4.289 4.29-4.289 11.267 0 15.555zm4.275-6.977a.5.5 0 0 1-.5-.5v-.6a.5.5 0 0 1 .5-.5h7.004a.5.5 0 0 1 .5.5v.6a.5.5 0 0 1-.5.5H8.498z" fill="#CFCCCE" fill-rule="evenodd"/></svg>