<svg width="40" height="41" viewBox="0 0 40 41" xmlns="http://www.w3.org/2000/svg"><title>Icons/star</title><defs><filter x="-6.4%" y="-10.9%" width="112.8%" height="123.9%" filterUnits="objectBoundingBox" id="a"><feOffset dy="2" in="SourceAlpha" result="shadowOffsetOuter1"/><feGaussianBlur stdDeviation="7" in="shadowOffsetOuter1" result="shadowBlurOuter1"/><feColorMatrix values="0 0 0 0 0 0 0 0 0 0 0 0 0 0 0 0 0 0 0.1 0" in="shadowBlurOuter1" result="shadowMatrixOuter1"/><feMerge><feMergeNode in="shadowMatrixOuter1"/><feMergeNode in="SourceGraphic"/></feMerge></filter></defs><path d="M8.507.38l1.525 4.945c.07.23.276.41.507.41h4.927c.517 0 .731.67.312.99l-3.983 3.013a.566.566 0 0 0-.195.62l1.523 4.908c.16.516-.403.943-.821.624l-3.988-3.043a.514.514 0 0 0-.628 0l-3.988 3.038c-.418.319-.98-.11-.82-.626L4.4 10.353a.575.575 0 0 0-.195-.626L.222 6.724c-.42-.318-.205-.988.312-.988h4.927c.232 0 .437-.18.508-.411L7.493.393c.16-.516.855-.528 1.014-.012" transform="translate(12 10)" filter="url(#a)" fill="#FFCE52" fill-rule="evenodd"/></svg>