<svg width="158" height="31" viewBox="0 0 158 31" xmlns="http://www.w3.org/2000/svg"><title>Logo-white</title><g fill="#FFF" fill-rule="evenodd"><path d="M36.178 23.513V12.848h-3.065V9.93h3.065V8.61c0-2.27.535-3.902 1.604-4.898.998-.95 2.46-1.424 4.385-1.424 1.925 0 3.636.405 5.133 1.216l-1.034 2.779c-1.14-.58-2.21-.869-3.208-.869-.998 0-1.687.238-2.068.713-.38.474-.57 1.198-.57 2.17V9.93h5.276v2.918H40.42v11.638l2.994.138v2.78h-9.446v-2.64l1.176-.105c.357-.046.618-.145.785-.295.166-.15.25-.434.25-.851zm12.58 0V12.848h-3.065V9.93h3.066V8.61c0-2.27.534-3.902 1.604-4.898.998-.95 2.46-1.424 4.384-1.424 1.925 0 3.636.405 5.133 1.216l-1.033 2.779c-1.141-.58-2.21-.869-3.209-.869-.998 0-1.687.238-2.067.713-.38.474-.57 1.198-.57 2.17V9.93h5.275v2.918h-5.275v11.638l2.994.138v2.78h-9.446v-2.64l1.176-.105c.356-.046.618-.145.784-.295.167-.15.25-.434.25-.851zM68.042 9.409c1.782 0 3.196.423 4.242 1.268 1.045.845 1.568 2.032 1.568 3.56 0 1.02-.226 1.917-.677 2.693-.452.776-1.01 1.384-1.676 1.824-.665.44-1.473.799-2.423 1.077-1.593.463-3.387.694-5.383.694.071 1.228.463 2.218 1.176 2.97.713.753 1.806 1.13 3.28 1.13 1.473 0 2.946-.51 4.42-1.529l1.354 2.814c-.475.417-1.277.845-2.406 1.285-1.129.44-2.418.66-3.867.66-2.9 0-5.026-.781-6.381-2.345-1.355-1.563-2.032-3.71-2.032-6.444 0-2.732.772-5.025 2.317-6.878 1.545-1.852 3.707-2.779 6.488-2.779zm.784 6.93c.737-.52 1.105-1.14 1.105-1.858 0-1.413-.713-2.119-2.139-2.119-1.33 0-2.352.515-3.065 1.546-.713 1.03-1.105 2.264-1.177 3.7a19.347 19.347 0 0 0 2.87-.261 5.855 5.855 0 0 0 2.406-1.008zm9.123 7.174V13.89c0-.37-.066-.63-.196-.781-.13-.15-.363-.238-.695-.26l-1.497-.105V9.93h6.024v2.606c.428-.904 1.093-1.65 1.996-2.24.903-.591 1.943-.887 3.119-.887 1.176 0 2.3.255 3.369.764v5.176l-3.316.244v-1.598c0-.464-.118-.753-.356-.869-.261-.116-.582-.173-.962-.173-.951 0-1.73.33-2.335.99-.606.66-.91 1.5-.91 2.518v8.06l3.102.138v2.745h-9.553v-2.64l1.176-.105c.357-.046.618-.145.784-.295.167-.15.25-.434.25-.851zM95.555 6.248h2.317V9.93h4.74l-.356 2.918h-4.384v9.136c0 1.02.19 1.732.57 2.137.38.405.968.608 1.764.608s1.599-.243 2.406-.73l1.07 2.675c-1.188.81-2.697 1.216-4.527 1.216-1.07 0-1.973-.133-2.71-.4-.736-.266-1.283-.561-1.64-.885-.356-.325-.629-.8-.819-1.425-.19-.625-.297-1.117-.32-1.476a25.927 25.927 0 0 1-.036-1.58v-9.276h-2.531l.356-2.536c1.117-.092 1.96-.48 2.531-1.163.57-.683 1.093-1.65 1.569-2.9zm17.82 3.161c1.782 0 3.196.423 4.242 1.268 1.046.845 1.568 2.032 1.568 3.56 0 1.02-.225 1.917-.677 2.693-.451.776-1.01 1.384-1.675 1.824-.666.44-1.474.799-2.424 1.077-1.592.463-3.387.694-5.383.694.072 1.228.464 2.218 1.177 2.97.712.753 1.806 1.13 3.279 1.13 1.473 0 2.947-.51 4.42-1.529l1.355 2.814c-.476.417-1.278.845-2.406 1.285-1.13.44-2.418.66-3.868.66-2.9 0-5.026-.781-6.38-2.345-1.355-1.563-2.033-3.71-2.033-6.444 0-2.732.773-5.025 2.317-6.878 1.545-1.852 3.708-2.779 6.488-2.779zm.784 6.93c.737-.52 1.105-1.14 1.105-1.858 0-1.413-.713-2.119-2.138-2.119-1.331 0-2.353.515-3.066 1.546-.713 1.03-1.105 2.264-1.176 3.7a19.347 19.347 0 0 0 2.87-.261 5.855 5.855 0 0 0 2.405-1.008zM122 27.247c-.452-.451-.677-1.042-.677-1.771 0-.73.231-1.332.695-1.807.463-.475 1.093-.712 1.889-.712s1.432.226 1.907.677c.475.452.713 1.043.713 1.772 0 .73-.226 1.332-.677 1.806-.452.475-1.093.713-1.925.713-.832 0-1.474-.226-1.925-.678zm6.307-14.538V9.93h6.024v2.258c.618-.857 1.438-1.534 2.46-2.032a7.467 7.467 0 0 1 3.315-.747c1.806 0 3.202.504 4.188 1.511.986 1.008 1.48 2.519 1.48 4.534v9.066l2.031.104v2.78h-8.484v-2.64l1.177-.105c.356-.046.618-.145.784-.295.166-.15.25-.434.25-.851v-7.156c0-1.274-.203-2.218-.607-2.831-.404-.614-1.17-.92-2.299-.92s-2.026.347-2.691 1.041c-.665.695-.998 1.517-.998 2.467v8.406l2.032.104v2.78h-8.484v-2.64l1.176-.105c.357-.046.618-.145.784-.295.167-.15.25-.434.25-.851V13.89c0-.694-.297-1.053-.891-1.076l-1.497-.105zM155.68 2.635V24.52l2.032.104v2.78h-8.484v-2.64l1.177-.105c.689-.07 1.034-.44 1.034-1.111V6.422c0-.51-.298-.788-.892-.834l-1.247-.07V2.636h6.38z"/><path d="M28.45 10.508c.559 1.453.878 3.023.878 4.67a13 13 0 0 1-.878 4.672l-3.354-.95a9.686 9.686 0 0 0 .738-3.721c0-1.318-.28-2.559-.738-3.722l3.354-.95zM11.66 5.662l-1.02-3.256a14.421 14.421 0 0 1 4.692-.795c1.657 0 3.234.29 4.692.795l-.979 3.256a11.02 11.02 0 0 0-3.693-.66 10.63 10.63 0 0 0-3.694.66zm7.406 19.015l1.019 3.256a14.421 14.421 0 0 1-4.692.795 14.33 14.33 0 0 1-4.692-.795l.978-3.256a11.02 11.02 0 0 0 3.694.659c1.298 0 2.535-.233 3.693-.66zM4.891 15.179c0 1.299.26 2.558.74 3.721l-3.355.95a12.976 12.976 0 0 1-.878-4.671c0-1.648.319-3.218.878-4.671l3.354.95a9.686 9.686 0 0 0-.739 3.72zm21.102 8.491l4.518 4.518-1.92 1.92-4.546-4.547-2.443 2.372-2.815-9.304 9.583 2.733-2.377 2.308zM6.64 25.561l-4.546 4.547-1.92-1.92 4.519-4.518-2.377-2.308 9.583-2.733-2.815 9.304-2.443-2.372zM4.698 6.683L.174 2.159l1.92-1.92L6.646 4.79l2.438-2.366 2.815 9.304-9.583-2.733 2.382-2.313zM24.039 4.79L28.59.24l1.92 1.92-4.524 4.523 2.383 2.314-9.583 2.733 2.815-9.304 2.437 2.366z" fill-rule="nonzero"/></g></svg>