<svg width="158" height="31" viewBox="0 0 158 31" xmlns="http://www.w3.org/2000/svg"><title>Logo-color</title><g fill="none" fill-rule="evenodd"><path d="M36.178 23.5V12.84h-3.065V9.923h3.065v-1.32c0-2.268.535-3.9 1.604-4.895.998-.95 2.46-1.424 4.385-1.424 1.925 0 3.636.405 5.133 1.215l-1.034 2.778c-1.14-.579-2.21-.868-3.208-.868-.998 0-1.687.237-2.068.712-.38.474-.57 1.198-.57 2.17v1.632h5.276v2.917H40.42v11.632l2.994.138v2.778h-9.446V24.75l1.176-.104c.357-.046.618-.145.785-.295.166-.15.25-.434.25-.85zm12.58 0V12.84h-3.065V9.923h3.066v-1.32c0-2.268.534-3.9 1.604-4.895.998-.95 2.46-1.424 4.384-1.424 1.925 0 3.636.405 5.133 1.215l-1.033 2.778c-1.141-.579-2.21-.868-3.209-.868-.998 0-1.687.237-2.067.712-.38.474-.57 1.198-.57 2.17v1.632h5.275v2.917h-5.275v11.632l2.994.138v2.778h-9.446V24.75l1.176-.104c.356-.046.618-.145.784-.295.167-.15.25-.434.25-.85zM68.042 9.401c1.782 0 3.196.423 4.242 1.268 1.045.844 1.568 2.03 1.568 3.559 0 1.018-.226 1.915-.677 2.69-.452.776-1.01 1.384-1.676 1.823-.665.44-1.473.799-2.423 1.077-1.593.463-3.387.694-5.383.694.071 1.227.463 2.217 1.176 2.969.713.752 1.806 1.128 3.28 1.128 1.473 0 2.946-.509 4.42-1.527l1.354 2.812c-.475.417-1.277.845-2.406 1.285-1.129.44-2.418.66-3.867.66-2.9 0-5.026-.782-6.381-2.344-1.355-1.563-2.032-3.71-2.032-6.441 0-2.732.772-5.023 2.317-6.875 1.545-1.852 3.707-2.778 6.488-2.778zm.784 6.927c.737-.52 1.105-1.14 1.105-1.857 0-1.412-.713-2.118-2.139-2.118-1.33 0-2.352.515-3.065 1.545-.713 1.03-1.105 2.262-1.177 3.698a19.356 19.356 0 0 0 2.87-.26 5.857 5.857 0 0 0 2.406-1.008zm9.123 7.17V13.88c0-.37-.066-.63-.196-.78-.13-.151-.363-.238-.695-.261l-1.497-.105V9.923h6.024v2.604c.428-.903 1.093-1.65 1.996-2.24.903-.59 1.943-.885 3.119-.885 1.176 0 2.3.255 3.369.764v5.174l-3.316.243v-1.598c0-.462-.118-.752-.356-.868-.261-.115-.582-.173-.962-.173-.951 0-1.73.33-2.335.99-.606.66-.91 1.498-.91 2.517v8.055l3.102.14v2.742h-9.553V24.75l1.176-.104c.357-.046.618-.145.784-.295.167-.15.25-.434.25-.85zM95.555 6.242h2.317v3.681h4.74l-.356 2.917h-4.384v9.132c0 1.018.19 1.73.57 2.135.38.405.968.608 1.764.608s1.599-.243 2.406-.73l1.07 2.674c-1.188.81-2.697 1.215-4.527 1.215-1.07 0-1.973-.133-2.71-.399-.736-.266-1.283-.561-1.64-.885-.356-.325-.629-.8-.819-1.424-.19-.625-.297-1.117-.32-1.476a25.904 25.904 0 0 1-.036-1.58v-9.27h-2.531l.356-2.535c1.117-.093 1.96-.48 2.531-1.163.57-.683 1.093-1.65 1.569-2.9zm17.82 3.16c1.782 0 3.196.423 4.242 1.268 1.046.844 1.568 2.03 1.568 3.559 0 1.018-.225 1.915-.677 2.69-.451.776-1.01 1.384-1.675 1.823-.666.44-1.474.799-2.424 1.077-1.592.463-3.387.694-5.383.694.072 1.227.464 2.217 1.177 2.969.712.752 1.806 1.128 3.279 1.128 1.473 0 2.947-.509 4.42-1.527l1.355 2.812c-.476.417-1.278.845-2.406 1.285-1.13.44-2.418.66-3.868.66-2.9 0-5.026-.782-6.38-2.344-1.355-1.563-2.033-3.71-2.033-6.441 0-2.732.773-5.023 2.317-6.875 1.545-1.852 3.708-2.778 6.488-2.778zm.784 6.927c.737-.52 1.105-1.14 1.105-1.857 0-1.412-.713-2.118-2.138-2.118-1.331 0-2.353.515-3.066 1.545-.713 1.03-1.105 2.262-1.176 3.698a19.356 19.356 0 0 0 2.87-.26 5.857 5.857 0 0 0 2.405-1.008zM122 27.232c-.452-.451-.677-1.042-.677-1.77 0-.73.231-1.332.695-1.806.463-.475 1.093-.712 1.889-.712s1.432.225 1.907.677c.475.451.713 1.041.713 1.77 0 .73-.226 1.332-.677 1.806-.452.475-1.093.712-1.925.712-.832 0-1.474-.226-1.925-.677zm6.307-14.531V9.923h6.024v2.257c.618-.857 1.438-1.534 2.46-2.031a7.47 7.47 0 0 1 3.315-.747c1.806 0 3.202.504 4.188 1.51.986 1.008 1.48 2.518 1.48 4.532v9.062l2.031.104v2.778h-8.484V24.75l1.177-.104c.356-.046.618-.145.784-.295.166-.15.25-.434.25-.85v-7.153c0-1.274-.203-2.217-.607-2.83-.404-.614-1.17-.92-2.299-.92s-2.026.347-2.691 1.041c-.665.695-.998 1.516-.998 2.466v8.402l2.032.104v2.778h-8.484V24.75l1.176-.104c.357-.046.618-.145.784-.295.167-.15.25-.434.25-.85V13.88c0-.694-.297-1.053-.891-1.076l-1.497-.104zm27.373-10.07v21.875l2.032.104v2.778h-8.484V24.75l1.177-.104c.689-.07 1.034-.44 1.034-1.111V6.416c0-.51-.298-.787-.892-.833l-1.247-.07V2.631h6.38z" fill="#1C1B1B"/><g fill-rule="nonzero"><path d="M28.45 10.5l-3.354.95c.459 1.162.738 2.402.738 3.72 0 1.317-.26 2.557-.738 3.719l3.354.95c.559-1.454.878-3.023.878-4.67 0-1.647-.32-3.216-.878-4.669zM11.66 5.656a10.645 10.645 0 0 1 3.693-.658c1.298 0 2.555.252 3.693.658l.979-3.254a14.336 14.336 0 0 0-4.692-.795c-1.657 0-3.214.29-4.692.795l1.018 3.254zm7.406 19.006a10.645 10.645 0 0 1-3.693.66c-1.298 0-2.556-.253-3.694-.66l-.978 3.255c1.458.504 3.035.795 4.692.795s3.214-.291 4.692-.795l-1.019-3.255zM4.891 15.17c0-1.318.26-2.558.74-3.72l-3.355-.95a12.965 12.965 0 0 0-.878 4.67c0 1.646.319 3.215.878 4.668l3.354-.949a9.75 9.75 0 0 1-.739-3.72z" fill="#1C1B1B"/><path d="M25.994 23.655l4.516 4.517-1.92 1.92-4.545-4.546-2.443 2.371-2.815-9.3 9.583 2.732-2.376 2.306z" fill="#7EC710"/><path d="M6.64 25.546l-4.545 4.546-1.92-1.92 4.517-4.517-2.376-2.306 9.583-2.731-2.815 9.3-2.443-2.372z" fill="#AD4B81"/><path d="M4.697 6.678L.175 2.156l1.92-1.92 4.551 4.55 2.438-2.365 2.815 9.3-9.583-2.732 2.381-2.311z" fill="#4A89FF"/><path d="M24.039 4.786l4.55-4.55 1.92 1.92-4.521 4.521 2.382 2.312-9.583 2.732 2.815-9.3 2.437 2.365z" fill="#FFCE52"/></g></g></svg>